<svg width="111" height="69" fill="none" xmlns="http://www.w3.org/2000/svg"><path d="M.572 0H81c16.569 0 30 13.431 30 30v8.56c0 16.568-13.431 30-30 30H.572V0z" fill="#5AFF31" fill-opacity=".6"/><path d="M48.84 26.51c11.984.288 14.695 9.742 14.552 14.433M22.829 26.145h29.105" stroke="#fff" stroke-width="4"/><path d="M61.844 56.059c.78.793 2.047.814 2.828.046l12.726-12.52c.781-.77.781-2.035 0-2.83-.78-.793-2.047-.814-2.828-.045L63.258 51.839 51.946 40.34c-.781-.794-2.047-.815-2.828-.046-.781.768-.781 2.034 0 2.828L61.844 56.06zm-.586-16.604v15.18l4 .065V39.52l-4-.065z" fill="#fff"/></svg>