<svg width="39" height="41" fill="none" xmlns="http://www.w3.org/2000/svg"><path d="M34.125 11.497h-.13c-8.596-.905-17.176-1.247-25.675-.342l-3.315.342c-.683.068-1.284-.444-1.349-1.162-.065-.717.423-1.332 1.089-1.4l3.315-.342c8.645-.923 17.404-.564 26.179.342.666.068 1.154.7 1.089 1.4-.05.667-.586 1.162-1.203 1.162z" fill="#FF4949"/><path d="M13.813 9.772c-.066 0-.13 0-.212-.017-.65-.12-1.105-.786-.991-1.47l.357-2.238c.26-1.64.618-3.912 4.404-3.912h4.258c3.802 0 4.16 2.358 4.403 3.93l.358 2.22c.114.7-.341 1.367-.991 1.47-.666.12-1.3-.36-1.398-1.043l-.357-2.22c-.228-1.487-.276-1.777-1.999-1.777h-4.258c-1.722 0-1.755.24-1.998 1.76l-.374 2.22c-.098.632-.617 1.077-1.203 1.077zM24.716 38.865H14.284c-5.671 0-5.899-3.297-6.078-5.962L7.15 15.7c-.049-.7.471-1.316 1.138-1.367.682-.034 1.25.495 1.3 1.196l1.056 17.203c.178 2.596.243 3.57 3.64 3.57h10.432c3.413 0 3.478-.974 3.64-3.57l1.056-17.203c.05-.7.634-1.23 1.3-1.196.667.051 1.187.65 1.138 1.367l-1.056 17.203c-.179 2.665-.407 5.962-6.078 5.962z" fill="#FF4949"/><path d="M22.198 29.469h-5.412c-.666 0-1.219-.581-1.219-1.282 0-.7.553-1.28 1.22-1.28h5.41c.667 0 1.22.58 1.22 1.28 0 .7-.553 1.282-1.22 1.282zM23.563 22.635h-8.125c-.667 0-1.22-.58-1.22-1.28 0-.701.553-1.282 1.22-1.282h8.124c.667 0 1.22.58 1.22 1.281 0 .7-.553 1.281-1.22 1.281z" fill="#FF4949"/></svg>