<svg width="42" height="41" fill="none" xmlns="http://www.w3.org/2000/svg"><path d="M9.695 33.347c-1.068 0-2.065-.36-2.783-1.025-.91-.837-1.347-2.102-1.19-3.468l.648-5.535c.122-1.042.77-2.426 1.522-3.178L22.26 5.296c3.587-3.707 7.332-3.81 11.13-.308 3.797 3.502 3.902 7.158.315 10.865L19.338 30.7c-.736.768-2.1 1.486-3.168 1.657l-5.635.94c-.297.017-.56.05-.84.05zM27.878 4.97c-1.348 0-2.52.82-3.71 2.05L9.8 21.884c-.35.358-.753 1.213-.823 1.708l-.647 5.535c-.07.564.07 1.025.385 1.316.315.29.787.392 1.365.307l5.635-.94c.508-.085 1.348-.53 1.698-.888L31.78 14.077c2.17-2.255 2.957-4.34-.21-7.244-1.4-1.315-2.608-1.862-3.692-1.862z" fill="#fff" fill-opacity=".87"/><path d="M30.345 18.706h-.122c-5.46-.53-9.853-4.578-10.693-9.874-.105-.7.385-1.35 1.102-1.47a1.33 1.33 0 0 1 1.505 1.077c.665 4.134 4.096 7.312 8.366 7.722.717.068 1.242.7 1.172 1.4a1.344 1.344 0 0 1-1.33 1.145zM36.75 38.865H5.25c-.718 0-1.313-.581-1.313-1.282 0-.7.595-1.28 1.313-1.28h31.5c.718 0 1.313.58 1.313 1.28 0 .7-.596 1.282-1.313 1.282z" fill="#fff" fill-opacity=".87"/></svg>