<?xml version="1.0" encoding="UTF-8"?>
<svg viewBox="0 0 46 42" xmlns="http://www.w3.org/2000/svg">
<path d="M10.37 38.063c-2.147 0-3.508-.666-4.37-1.453-1.688-1.54-2.876-4.813.92-11.76l1.667-3.027c.21-.403.21-1.243 0-1.646L6.919 17.15C3.105 10.203 4.313 6.913 6 5.39c1.668-1.54 5.271-2.642 12.861.84l16.407 7.49c4.082 1.855 6.325 4.445 6.325 7.28s-2.243 5.425-6.306 7.28l-16.407 7.49c-3.718 1.697-6.478 2.292-8.51 2.292zm0-31.5c-1.036 0-1.84.227-2.34.682-1.398 1.26-.842 4.532 1.458 8.715l1.667 3.045c.613 1.137.613 2.853 0 3.99l-1.667 3.027c-2.3 4.2-2.856 7.456-1.457 8.715 1.38 1.278 4.964.77 9.564-1.33l16.407-7.49c3.009-1.365 4.715-3.167 4.715-4.934 0-1.768-1.725-3.57-4.734-4.936L17.576 8.575c-2.914-1.33-5.424-2.012-7.207-2.012z" fill="#8687E7"/>
<path d="M20.777 22.313h-10.35c-.786 0-1.438-.595-1.438-1.313s.652-1.313 1.438-1.313h10.35c.785 0 1.437.595 1.437 1.313s-.651 1.313-1.437 1.313z" fill="#8687E7"/>
</svg>
